<svg xmlns="http://www.w3.org/2000/svg" xmlns:xlink="http://www.w3.org/1999/xlink" width="500" zoomAndPan="magnify" viewBox="0 0 375 374.999991" height="500" preserveAspectRatio="xMidYMid meet" version="1.0"><defs><g><g id="id1"/></g></defs><g fill="rgb(13.328552%, 33.329773%, 0%)" fill-opacity="1"><g transform="translate(-4.557017, 206.863081)"><g><path d="M 108.480469 8.820312 C 114.007812 9.988281 118.042969 2.761719 115.8125 0.53125 C 105.1875 -5.207031 113.6875 -24.4375 119 -44.304688 C 121.230469 -52.488281 129.625 -73.84375 112.09375 -73.949219 C 102.636719 -73.949219 94.03125 -65.023438 88.398438 -57.375 C 90.101562 -66.40625 88.1875 -73.84375 78.519531 -73.84375 C 69.382812 -73.949219 60.03125 -65.023438 54.082031 -56.3125 C 55.570312 -61.199219 56.949219 -66.085938 58.4375 -70.976562 C 58.226562 -73.632812 50.148438 -75.011719 48.132812 -71.929688 C 35.273438 -56.738281 12.960938 -61.304688 9.667969 -46.539062 C 7.96875 -38.992188 13.386719 -32.085938 23.269531 -32.40625 C 26.136719 -32.40625 26.988281 -37.929688 25.179688 -38.355469 C 20.929688 -39.3125 20.507812 -42.289062 21.25 -45.582031 C 23.054688 -53.445312 36.125 -52.59375 44.625 -61.730469 C 42.074219 -53.550781 39.207031 -43.667969 35.914062 -32.195312 C 32.726562 -21.144531 29.007812 -8.820312 26.667969 -1.699219 C 27.09375 1.699219 36.230469 1.804688 38.570312 -1.273438 C 40.054688 -5.207031 45.582031 -25.5 49.085938 -36.65625 C 54.929688 -48.34375 66.40625 -65.875 73.417969 -65.664062 C 79.15625 -65.554688 76.820312 -56.417969 74.90625 -49.511719 C 70.230469 -34.105469 66.085938 -16.042969 61.414062 -1.59375 C 61.414062 2.019531 71.613281 1.59375 73.207031 -1.0625 C 75.648438 -7.226562 79.15625 -23.90625 85.105469 -42.074219 C 91.054688 -53.335938 100.9375 -65.554688 107.207031 -65.664062 C 114.21875 -65.664062 109.757812 -54.082031 107.523438 -46.855469 C 99.664062 -21.570312 92.96875 2.976562 108.480469 8.820312 Z M 108.480469 8.820312 "/></g></g></g><g fill="rgb(13.328552%, 33.329773%, 0%)" fill-opacity="1"><g transform="translate(121.343896, 206.863081)"><g><path d="M 25.289062 -44.945312 C 13.28125 -42.925781 0.851562 -30.707031 -1.488281 -16.46875 C -3.398438 -4.570312 2.550781 1.0625 10.304688 0.957031 C 18.914062 0.742188 23.585938 -5.84375 27.304688 -12.324219 C 26.03125 -4.460938 28.898438 0.425781 34 0.425781 C 43.988281 0.425781 52.273438 -9.773438 57.800781 -21.355469 C 58.4375 -22.632812 54.613281 -24.757812 54.082031 -23.480469 C 50.257812 -14.238281 43.03125 -7.011719 39.101562 -6.90625 C 36.65625 -6.90625 36.019531 -9.351562 37.1875 -14.664062 C 38.144531 -19.867188 40.054688 -26.242188 41.226562 -30.28125 C 40.800781 -32.511719 32.9375 -34.742188 31.023438 -32.300781 C 27.414062 -18.699219 16.789062 -2.550781 11.582031 -7.648438 C 9.136719 -10.09375 9.773438 -17.320312 13.070312 -24.226562 C 16.363281 -31.238281 22.207031 -36.65625 28.367188 -37.507812 C 33.257812 -38.144531 39.207031 -36.65625 43.5625 -33.148438 C 45.261719 -32.300781 49.617188 -37.1875 48.554688 -38.886719 C 42.605469 -44.945312 32.300781 -46.113281 25.289062 -44.945312 Z M 25.289062 -44.945312 "/></g></g></g><g fill="rgb(13.328552%, 33.329773%, 0%)" fill-opacity="1"><g transform="translate(174.785387, 206.863081)"><g><path d="M 33.042969 -45.261719 C 26.03125 -45.367188 18.804688 -38.460938 14.980469 -34 C 15.9375 -37.082031 16.363281 -38.886719 17.320312 -42.289062 C 16.257812 -45.582031 7.96875 -46.113281 6.269531 -43.773438 C 2.019531 -28.261719 -1.59375 -16.148438 -4.992188 -2.019531 C -4.78125 1.488281 5.738281 1.167969 6.90625 -1.167969 C 9.136719 -10.730469 10.304688 -16.148438 13.28125 -26.136719 C 17.210938 -31.449219 22.84375 -36.445312 26.5625 -36.550781 C 30.175781 -36.65625 29.644531 -33.148438 28.898438 -29.960938 C 27.945312 -25.605469 24.96875 -14.023438 24.332031 -10.414062 C 23.054688 -3.507812 25.5 1.167969 33.574219 0.957031 C 43.882812 0.851562 51.851562 -12.113281 56.101562 -21.355469 C 56.632812 -22.632812 52.914062 -24.757812 52.382812 -23.480469 C 48.449219 -14.34375 42.179688 -6.480469 37.824219 -6.480469 C 35.167969 -6.480469 35.699219 -10.519531 36.550781 -14.449219 C 37.71875 -19.550781 39.949219 -25.5 41.117188 -30.386719 C 43.136719 -38.992188 41.117188 -45.15625 33.042969 -45.261719 Z M 33.042969 -45.261719 "/></g></g></g><g fill="rgb(13.328552%, 33.329773%, 0%)" fill-opacity="1"><g transform="translate(226.420709, 206.863081)"><g><path d="M 26.351562 -45.050781 C 18.914062 -44.09375 10.519531 -39.417969 4.78125 -31.132812 C -4.886719 -17.53125 -4.570312 1.273438 10.304688 0.957031 C 18.59375 0.742188 23.800781 -6.054688 27.09375 -12.007812 C 25.5 -6.695312 23.695312 -0.957031 22.417969 2.867188 C 11.898438 6.269531 0.53125 10.519531 -0.742188 20.71875 C -1.59375 27.730469 3.292969 31.664062 10.414062 31.449219 C 22.207031 31.34375 26.882812 24.011719 31.769531 6.164062 C 43.351562 1.167969 49.9375 -6.269531 57.164062 -21.355469 C 57.800781 -22.632812 53.976562 -24.757812 53.445312 -23.585938 C 48.023438 -11.476562 41.648438 -4.039062 33.574219 -0.742188 C 36.867188 -12.429688 38.675781 -20.292969 41.542969 -30.28125 C 41.332031 -32.40625 32.9375 -34.636719 31.449219 -32.40625 C 30.070312 -28.050781 28.15625 -23.375 26.457031 -19.867188 C 21.460938 -9.667969 14.980469 -4.675781 11.6875 -7.542969 C 9.136719 -9.988281 9.667969 -17.105469 13.175781 -24.226562 C 16.894531 -31.664062 22.738281 -37.082031 29.324219 -37.613281 C 34 -38.039062 39.523438 -36.65625 43.773438 -33.257812 C 45.476562 -32.085938 49.832031 -37.1875 48.875 -38.886719 C 42.5 -44.519531 33.363281 -45.898438 26.351562 -45.050781 Z M 20.71875 9.667969 C 20.082031 11.898438 19.550781 14.023438 18.914062 16.042969 C 15.40625 26.773438 6.375 25.074219 9.667969 18.273438 C 11.15625 15.195312 15.726562 11.792969 20.71875 9.667969 Z M 20.71875 9.667969 "/></g></g></g><g fill="rgb(13.328552%, 33.329773%, 0%)" fill-opacity="1"><g transform="translate(279.118477, 206.863081)"><g><path d="M 32.9375 -43.667969 C 30.917969 -36.550781 28.792969 -28.792969 26.5625 -22.101562 C 23.375 -13.070312 16.679688 -6.800781 12.539062 -6.800781 C 8.605469 -6.800781 9.667969 -12.324219 11.15625 -18.382812 C 13.070312 -26.882812 15.832031 -36.335938 17.320312 -42.289062 C 17.320312 -45.15625 7.542969 -46.113281 6.269531 -43.457031 C 3.824219 -34 0.105469 -23.585938 -1.804688 -12.960938 C -3.1875 -5.523438 -1.0625 0.851562 7.332031 0.957031 C 14.449219 1.167969 21.144531 -2.335938 27.304688 -12.539062 C 25.710938 -6.164062 27.945312 0.53125 33.789062 0.53125 C 44.835938 0.636719 52.699219 -14.132812 56.3125 -21.355469 C 56.949219 -22.632812 53.230469 -24.863281 52.59375 -23.480469 C 48.769531 -14.554688 42.394531 -6.695312 38.355469 -6.800781 C 32.9375 -6.800781 41.226562 -32.300781 43.988281 -42.179688 C 43.242188 -45.261719 34.210938 -46.007812 32.9375 -43.667969 Z M 32.9375 -43.667969 "/></g></g></g><g fill="rgb(13.328552%, 33.329773%, 0%)" fill-opacity="1"><g transform="translate(331.072504, 206.863081)"><g><path d="M 13.070312 0.957031 C 23.695312 0.851562 31.449219 -7.96875 37.1875 -21.25 C 37.71875 -22.632812 34.105469 -24.757812 33.46875 -23.480469 C 29.007812 -13.386719 21.460938 -6.375 15.300781 -6.480469 C 10.09375 -6.585938 10.09375 -13.8125 12.324219 -23.585938 C 13.28125 -28.050781 14.875 -33.679688 16.46875 -39.207031 L 26.457031 -39.207031 C 28.050781 -39.738281 29.324219 -44.730469 27.304688 -46.21875 L 18.382812 -46.21875 C 20.824219 -54.292969 23.269531 -61.835938 25.605469 -68.320312 C 25.5 -71.398438 15.832031 -72.570312 14.34375 -70.445312 C 12.21875 -65.023438 8.925781 -55.144531 6.164062 -46.21875 L 1.914062 -46.21875 C 0.210938 -45.582031 -1.0625 -40.375 1.0625 -39.207031 L 4.25 -39.207031 C -0.636719 -20.613281 -5.523438 1.167969 13.070312 0.957031 Z M 13.070312 0.957031 "/></g></g></g><g fill="rgb(13.328552%, 33.329773%, 0%)" fill-opacity="1"><g transform="translate(184.80099, 277.362753)"><g/></g></g></svg>